# xmcd
#
# Track frame offsets:
#	150
#	16648
#	31790
#	48059
#	62519
#	79318
#	97695
#	114015
#	134937
#	156036
#	171218
#	189908
#	206288
#	224361
#	240884
#	271663
#
# Disc length: 3635 seconds
#
# Revision: 0
# Processed by: cddbd v1.5.1PL2 Copyright (c) Steve Scherf et al.
# Submitted via: audiograbber 1.83.01
#
DISCID=b80e3110
DTITLE=Sound Choice - SC8884
DYEAR=1900
DGENRE=Karaoke
TTITLE0=Brooks and Dunn - That's What It's All About (Radio Version)
TTITLE1=Jackson, Alan - Too Much Of A Good Thing
TTITLE2=Rascal Flatts - Feels Like Today
TTITLE3=Trick Pony - Bride, The
TTITLE4=Keith, Toby - Stays In Mexico
TTITLE5=Proctor, Rachel - Where I Belong
TTITLE6=Buffett, Jimmy and Martina McBride - Trip Around The Sun
TTITLE7=Notorious Cherry Bombs, The - It's Hard To Kiss The Lips At Night That 
TTITLE7=Chew Your Ass Out All Day Long
TTITLE8=Montgomery, John Michael - Goes Good With Beer
TTITLE9=Diffie, Joe - Tougher Than Nails
TTITLE10=Strait, George - I Hate Everything
TTITLE11=Shelton, Blake - Some Beach
TTITLE12=Urban, Keith - Days Go By
TTITLE13=Diamond Rio - Can't You Tell
TTITLE14=Roberts, Julie - Break Down Here
TTITLE15=Data - Data Track
EXTD=As Listed In KJ Pro
EXTT0=
EXTT1=
EXTT2=
EXTT3=
EXTT4=
EXTT5=
EXTT6=
EXTT7=
EXTT8=
EXTT9=
EXTT10=
EXTT11=
EXTT12=
EXTT13=
EXTT14=
EXTT15=
PLAYORDER=
